<svg width="18" height="18" viewBox="0 0 18 18" xmlns="http://www.w3.org/2000/svg" aria-hidden="true" focusable="false">
  <path fill="#EA4335" d="M17.64 9.2045c0-.6382-.0573-1.2518-.1636-1.8409H9v3.4818h4.8436c-.2086 1.125-.8427 2.0782-1.7968 2.7164v2.2582h2.9086c1.7027-1.5673 2.6846-3.8745 2.6846-6.6155z"/>
  <path fill="#34A853" d="M9 18c2.43 0 4.4673-.8064 5.9564-2.1791l-2.9086-2.2582c-.8063.5409-1.8395.8609-3.0478.8609-2.344 0-4.3282-1.5836-5.0373-3.7109H.9573v2.3318C2.4382 15.9836 5.4818 18 9 18z"/>
  <path fill="#4A90E2" d="M3.9627 10.7127C3.7827 10.1718 3.68 9.5945 3.68 9s.1027-1.1718.2827-1.7127V4.9555H.9573C.3477 6.1709 0 7.5436 0 9s.3477 2.8291.9573 4.0445l3.0054-2.3318z"/>
  <path fill="#FBBC05" d="M9 3.5764c1.3214 0 2.5077.4541 3.4418 1.3455l2.5818-2.5819C13.4636.8918 11.4264 0 9 0 5.4818 0 2.4382 2.0164.9573 4.9555l3.0054 2.3318C4.6718 5.16 6.656 3.5764 9 3.5764z"/>
</svg>
